<svg xmlns="http://www.w3.org/2000/svg" viewBox="0 0 560 554.1">
  <g fill="#84dcf0">
    <path d="M100.5,456.9l46.6-125.1h30.7l45.3,125.1h-28.5l-10.5-30h-44.8l-11.1,30H100.5z M177.7,404.9
            c-9.6-28.5-12.8-37.4-15.2-45.7c-2.6,8.1-5.5,16.5-16.3,45.7H177.7z"></path>
    <path d="M237.8,456.9v-125h31.3c11.8,0,22.4,0.4,30.7,1.9c20.7,3.5,31.3,14.6,31.3,37.4c0,20.7-9.6,35.3-28.9,40
            c-8.1,1.8-17.9,2.6-27,2.6h-11.3v43.3h-26.1V456.9z M273.3,393.1c6.8,0,14.8-0.4,19.4-2c7.4-2.6,11.5-8.1,11.5-18.1
            c0-9.2-4.1-14.4-11.8-16.7c-4.4-1.3-10.5-1.7-17.2-1.7h-11.3v38.5L273.3,393.1L273.3,393.1z"></path>
    <path d="M349.5,456.9v-125h26.1v54.2l46.4-54.2h30.2l-43.1,49.8l47.2,75.3h-31.1l-33.9-54.2l-15.7,17.6V457h-26.1V456.9z"></path>
  </g>
  <g fill="#84dcf0">
    <path d="M327.2,39.4l-13.4,25.7c-10.5-4-21.9-6.3-33.8-6.3s-23.3,2.2-33.8,6.3l-13.4-25.7c-0.7-1.3-2.2-1.8-3.5-1.1
            s-1.8,2.2-1.1,3.5l13.2,25.3c-29.5,13.3-50.8,41.5-54.5,75h186.3c-3.7-33.5-25.1-61.7-54.5-75l13.2-25.3c0.7-1.3,0.2-2.8-1.1-3.5
            C329.4,37.7,327.8,38.2,327.2,39.4z M253.5,110.9c0,8.3-6.8,15.1-15.1,15.1s-15.1-6.8-15.1-15.1s6.8-15.1,15.1-15.1
            S253.5,102.6,253.5,110.9z M336.8,110.9c0,8.3-6.8,15.1-15.1,15.1c-8.3,0-15.1-6.8-15.1-15.1s6.8-15.1,15.1-15.1
            S336.8,102.6,336.8,110.9z"></path>
    <rect x="186.9" y="160" width="186.3" height="155"></rect>
    <g fill="#84dcf0">
      <path d="M149.4,315h4.2c10.2,0,18.5-8.3,18.5-18.5v-144c0-10.2-8.3-18.5-18.5-18.5h-4.2c-10.2,0-18.5,8.3-18.5,18.5v144.1
              C130.9,306.7,139.2,315,149.4,315z"></path>
      <path d="M406.4,315h4.2c10.2,0,18.5-8.3,18.5-18.5v-144c0-10.2-8.3-18.5-18.5-18.5h-4.2c-10.2,0-18.5,8.3-18.5,18.5v144.1
              C387.9,306.7,396.2,315,406.4,315z"></path>
    </g>
  </g>
</svg>
